<svg width="78" height="78" viewBox="0 0 78 78" fill="none" xmlns="http://www.w3.org/2000/svg">
<path d="M53.17 45.5C53.43 43.355 53.625 41.21 53.625 39C53.625 36.79 53.43 34.645 53.17 32.5H64.155C64.675 34.58 65 36.7575 65 39C65 41.2425 64.675 43.42 64.155 45.5H53.17ZM47.4175 63.57C49.3675 59.9625 50.8625 56.0625 51.9025 52H61.49C58.3413 57.4219 53.3459 61.529 47.4175 63.57V63.57ZM46.605 45.5H31.395C31.07 43.355 30.875 41.21 30.875 39C30.875 36.79 31.07 34.6125 31.395 32.5H46.605C46.8975 34.6125 47.125 36.79 47.125 39C47.125 41.21 46.8975 43.355 46.605 45.5ZM39 64.87C36.3025 60.97 34.125 56.6475 32.7925 52H45.2075C43.875 56.6475 41.6975 60.97 39 64.87ZM26 26H16.51C19.6263 20.5634 24.6181 16.4498 30.55 14.43C28.6 18.0375 27.1375 21.9375 26 26ZM16.51 52H26C27.1375 56.0625 28.6 59.9625 30.55 63.57C24.6305 61.5279 19.6458 57.4201 16.51 52V52ZM13.845 45.5C13.325 43.42 13 41.2425 13 39C13 36.7575 13.325 34.58 13.845 32.5H24.83C24.57 34.645 24.375 36.79 24.375 39C24.375 41.21 24.57 43.355 24.83 45.5H13.845ZM39 13.0975C41.6975 16.9975 43.875 21.3525 45.2075 26H32.7925C34.125 21.3525 36.3025 16.9975 39 13.0975V13.0975ZM61.49 26H51.9025C50.8853 21.9747 49.3791 18.0892 47.4175 14.43C53.3975 16.4775 58.37 20.605 61.49 26ZM39 6.5C21.0275 6.5 6.5 21.125 6.5 39C6.5 47.6195 9.9241 55.886 16.019 61.981C19.0369 64.9989 22.6197 67.3928 26.5628 69.0261C30.5059 70.6594 34.732 71.5 39 71.5C47.6195 71.5 55.886 68.0759 61.981 61.981C68.0759 55.886 71.5 47.6195 71.5 39C71.5 34.732 70.6594 30.5059 69.0261 26.5628C67.3928 22.6197 64.9989 19.0369 61.981 16.019C58.9631 13.0011 55.3803 10.6072 51.4372 8.97392C47.4941 7.34064 43.268 6.5 39 6.5V6.5Z" fill="#F8F8F8"/>
</svg>
