<svg width="2048" height="631" viewBox="0 0 2048 631" fill="none" xmlns="http://www.w3.org/2000/svg">
<path fill-rule="evenodd" clip-rule="evenodd" d="M1979.73 622.786L2048 615.79V404V227V58.1866L1979.73 73.1785C1977.93 73.5471 1976.09 73.9262 1974.2 74.3148C1904.27 88.6733 1771.34 115.971 1638.4 109.159C1589.35 106.646 1540.31 99.3607 1491.26 92.0756C1403.77 79.0804 1316.29 66.0853 1228.8 80.1747C1173.14 89.1381 1117.49 108.731 1061.83 128.323C980.953 156.794 900.076 185.265 819.2 181.12C734.765 176.794 650.33 136.537 565.895 96.2797C513.797 71.4402 461.698 46.6007 409.6 30.2017C275.306 -13.0533 141.012 0.741394 71.6808 7.86316C70.5246 7.98193 69.3865 8.09882 68.2667 8.21356L4.95911e-05 15.2098L-4.95911e-05 227L-4.95911e-05 572.813L68.2666 557.822C70.0656 557.453 71.9119 557.074 73.8044 556.685C143.729 542.326 276.664 515.029 409.6 521.841C458.646 524.354 507.692 531.639 556.738 538.924C644.225 551.92 731.713 564.915 819.2 550.825C874.857 541.862 930.514 522.269 986.171 502.677C1067.05 474.206 1147.92 445.735 1228.8 449.88C1313.24 454.206 1397.67 494.463 1482.11 534.72C1534.2 559.56 1586.3 584.399 1638.4 600.798C1772.69 644.053 1906.99 630.259 1976.32 623.137L1979.73 622.786Z" fill="#6B71F2" fill-opacity="0.9"/>
</svg>
